Coordinates
version=1
nRows=29
nColumns=24
inDegrees=yes

Units are S.I. units (second, meters, Newtons, ...)
Angles are in degrees.

endheader
time	pelvis_tilt	pelvis_list	pelvis_rotation	pelvis_tx	pelvis_ty	pelvis_tz	hip_flexion_r	hip_adduction_r	hip_rotation_r	knee_angle_r	ankle_angle_r	subtalar_angle_r	mtp_angle_r	hip_flexion_l	hip_adduction_l	hip_rotation_l	knee_angle_l	ankle_angle_l	subtalar_angle_l	mtp_angle_l	lumbar_extension	lumbar_bending	lumbar_rotation
      3.50000000	      3.41347205	      1.71939068	      8.58866073	     -2.96577175	      0.91657038	      0.22360953	     22.60916611	      0.09461818	    -12.97958753	     -9.82525151	      6.90560502	      1.67873791	      0.00000000	    -20.34371581	      2.36397037	      5.27980024	    -20.68047710	     11.32015055	     -2.47578674	      0.00000000	    -19.20750441	     -1.91219056	    -16.43060359
      3.51000000	      3.44877465	      1.19036686	      8.15243461	     -2.94926669	      0.91534717	      0.22470528	     23.30575045	      0.79564216	    -11.99348006	    -12.67438524	      6.37227061	      1.08511518	      0.00000000	    -20.03467623	      1.72862960	      4.04885285	    -22.73276905	      9.15390153	     -2.34041205	      0.00000000	    -18.93994006	     -1.30216310	    -15.63602106
      3.52000000	      3.50411025	      0.60627586	      7.63520056	     -2.93272935	      0.91450973	      0.22591645	     23.98579203	      1.59582149	    -11.09840624	    -15.63331894	      6.17030661	      0.93579630	      0.00000000	    -19.57325384	      1.03977483	      2.82127597	    -24.96297073	      6.48600215	     -2.18803419	      0.00000000	    -18.69739264	     -0.63920468	    -14.76652430
      3.53000000	      3.58328756	      0.02336176	      7.09003141	     -2.91627361	      0.91406763	      0.22712452	     24.56827831	      2.41468532	    -10.35608177	    -18.53285833	      6.38208817	      1.12181233	      0.00000000	    -18.94833012	      0.36084661	      1.77751534	    -27.37430263	      3.17510843	     -2.24015431	      0.00000000	    -18.51016848	      0.02967189	    -13.92669794
      3.54000000	      3.67804379	     -0.53208897	      6.58568240	     -2.89999207	      0.91401129	      0.22818050	     24.97591668	      3.18488896	     -9.87150397	    -21.19201943	      6.97518643	      1.52867975	      0.00000000	    -18.12916213	     -0.27710209	      1.05123058	    -29.96704141	     -0.83355819	     -2.62615977	      0.00000000	    -18.38502327	      0.69168387	    -13.17931728
      3.55000000	      3.79021147	     -1.05155092	      6.17903154	     -2.88395728	      0.91430608	      0.22904497	     25.13525989	      3.88751475	     -9.61030461	    -23.46228177	      7.87536090	      1.95799602	      0.00000000	    -17.08391364	     -0.89138414	      0.62041086	    -32.76981862	     -5.37809034	     -3.15480602	      0.00000000	    -18.32631323	      1.33875828	    -12.56317831
      3.56000000	      3.87089240	     -1.52504567	      5.91547762	     -2.86823866	      0.91485480	      0.22969547	     25.05845799	      4.50228477	     -9.53288416	    -25.25562403	      8.95757266	      2.28422950	      0.00000000	    -15.74570709	     -1.47506721	      0.49383790	    -35.77897192	    -10.22097051	     -3.73722613	      0.00000000	    -18.27651436	      1.95230873	    -12.09171999
      3.57000000	      3.89838538	     -1.96189015	      5.81282539	     -2.85288783	      0.91558824	      0.23016828	     24.76184123	      5.04542306	     -9.59724314	    -26.53806155	     10.11464144	      2.46677834	      0.00000000	    -14.09868992	     -2.03991799	      0.61993470	    -38.96092146	    -14.96131519	     -4.26927467	      0.00000000	    -18.20235995	      2.52890822	    -11.75578715
      3.58000000	      3.86497781	     -2.38169360	      5.85275084	     -2.83791877	      0.91646896	      0.23052638	     24.27631067	      5.55259256	     -9.76135672	    -27.33107344	     11.24634229	      2.55710347	      0.00000000	    -12.17389129	     -2.59053864	      0.93433684	    -42.23942753	    -19.12513403	     -4.69450351	      0.00000000	    -18.08126699	      3.07402705	    -11.49936733
      3.59000000	      3.78896293	     -2.80490701	      5.99668242	     -2.82332104	      0.91749794	      0.23084038	     23.62501900	      6.06578368	     -9.98237162	    -27.69344006	     12.27686553	      2.54829398	      0.00000000	    -10.04267216	     -3.13738924	      1.33685544	    -45.52556210	    -22.25165265	     -5.01480160	      0.00000000	    -17.91892341	      3.59704963	    -11.26944772
      3.60000000	      3.73855454	     -3.27504632	      6.19282885	     -2.80903644	      0.91878538	      0.23117977	     22.76698068	      6.66567795	    -10.18940518	    -27.66490325	     13.10111091	      2.46526218	      0.00000000	     -7.84543517	     -3.71979135	      1.74361154	    -48.70735543	    -23.97256115	     -5.18493551	      0.00000000	    -17.78239360	      4.14571290	    -10.97458897
      3.61000000	      3.63985662	     -3.66763074	      6.33855433	     -2.79507710	      0.92022679	      0.23163229	     21.86776438	      7.22706081	    -10.29322698	    -27.44043576	     13.85275176	      2.39977231	      0.00000000	     -5.57520986	     -4.15935461	      2.09064853	    -51.67601193	    -24.39427068	     -5.44192133	      0.00000000	    -17.60054567	      4.54038522	    -10.61328943
      3.62000000	      3.53418886	     -4.02227869	      6.40148295	     -2.78136645	      0.92187451	      0.23223685	     20.90534120	      7.80672041	    -10.24333835	    -27.05793849	     14.48387967	      2.30991871	      0.00000000	     -3.31056423	     -4.52882357	      2.29107516	    -54.38074697	    -23.46057966	     -5.58365276	      0.00000000	    -17.40873008	      4.83994559	    -10.14093006
      3.63000000	      3.46575640	     -4.33192326	      6.34875174	     -2.76784315	      0.92378916	      0.23301699	     19.85000442	      8.40884824	     -9.98079375	    -26.56452477	     14.96531812	      2.19352741	      0.00000000	     -1.13835109	     -4.83239504	      2.32193775	    -56.76259216	    -21.43341407	     -5.65565257	      0.00000000	    -17.26100884	      5.03717681	     -9.53535546
      3.64000000	      3.40987128	     -4.55498070	      6.16923328	     -2.75449360	      0.92592485	      0.23395524	     18.75070854	      8.96552447	     -9.52755967	    -26.02656475	     15.33458938	      2.05988932	      0.00000000	      0.95617084	     -5.04098636	      2.16789657	    -58.79820494	    -18.73593889	     -5.64814226	      0.00000000	    -17.14264961	      5.09459791	     -8.82120599
      3.65000000	      3.35300079	     -4.67703677	      5.88476218	     -2.74128331	      0.92824222	      0.23500198	     17.62547820	      9.43748557	     -8.92318067	    -25.46399345	     15.62662899	      1.91954816	      0.00000000	      2.98676358	     -5.14925609	      1.86132347	    -60.48403452	    -15.72819861	     -5.53552681	      0.00000000	    -17.03508790	      5.00464659	     -8.04433388
      3.66000000	      3.29988938	     -4.71970997	      5.54582303	     -2.72821083	      0.93070278	      0.23607821	     16.46890009	      9.82596376	     -8.22532367	    -24.86604657	     15.83057595	      1.72065780	      0.00000000	      4.96752175	     -5.18507157	      1.46839907	    -61.84579165	    -12.70877033	     -5.31028328	      0.00000000	    -16.95087413	      4.81530243	     -7.26307169
      3.67000000	      3.22227083	     -4.64651257	      5.16528071	     -2.71525691	      0.93326310	      0.23712334	     15.31048646	     10.05910464	     -7.53421162	    -24.24407894	     16.01004867	      1.64376263	      0.00000000	      6.91507990	     -5.09848362	      1.01459023	    -62.87112606	     -9.85103207	     -4.96909389	      0.00000000	    -16.85610263	      4.48928070	     -6.51946468
      3.68000000	      3.14472969	     -4.52023557	      4.81872371	     -2.70242308	      0.93589264	      0.23803500	     14.11405174	     10.19477175	     -6.90989466	    -23.54340498	     16.12898541	      1.55893075	      0.00000000	      8.82706500	     -4.94898220	      0.58994084	    -63.59435858	     -7.24703754	     -4.56607683	      0.00000000	    -16.77764923	      4.12803030	     -5.85434513
      3.69000000	      3.05554487	     -4.34421878	      4.51233114	     -2.68971046	      0.93853291	      0.23879563	     12.89821823	     10.23043811	     -6.38970779	    -22.76914541	     16.20931165	      1.53485901	      0.00000000	     10.70598483	     -4.72998557	      0.20325950	    -64.01640053	     -4.89854594	     -4.15258647	      0.00000000	    -16.70530474	      3.73703686	     -5.29206159
      3.70000000	      2.95768005	     -4.14398752	      4.25665172	     -2.67713593	      0.94111889	      0.23937787	     11.67566501	     10.18981971	     -6.01990977	    -21.93522822	     16.28451632	      1.56023022	      0.00000000	     12.54651472	     -4.45470695	     -0.12148430	    -64.15024112	     -2.78640885	     -3.82312322	      0.00000000	    -16.64971046	      3.34994898	     -4.79780345
      3.71000000	      2.85363377	     -3.94197611	      4.08716233	     -2.66470597	      0.94359780	      0.23974378	     10.45553742	     10.10056371	     -5.81916763	    -21.05036533	     16.27915200	      1.60825576	      0.00000000	     14.34870600	     -4.14180330	     -0.36226532	    -64.00572663	     -0.84471894	     -3.61997100	      0.00000000	    -16.61294598	      3.00431896	     -4.47381359
      3.72000000	      2.74220077	     -3.75720540	      3.94800247	     -2.65241054	      0.94590628	      0.23996976	      9.25706368	     10.00270644	     -5.70877697	    -20.15405396	     16.22457958	      1.69990852	      0.00000000	     16.09638069	     -3.82129330	     -0.57411465	    -63.58638104	      0.91089569	     -3.61345865	      0.00000000	    -16.59192413	      2.71103470	     -4.26735932
      3.73000000	      2.62671830	     -3.59622031	      3.82093706	     -2.64026183	      0.94799969	      0.24008078	      8.10403215	      9.90840776	     -5.66987874	    -19.29947310	     16.17361764	      1.82352060	      0.00000000	     17.77556301	     -3.49809269	     -0.76379662	    -62.88996635	      2.47012983	     -3.87564033	      0.00000000	    -16.59604526	      2.47290744	     -4.09870714
      3.74000000	      2.51486671	     -3.45357637	      3.70105651	     -2.62825399	      0.94986418	      0.24008952	      6.99786944	      9.82053442	     -5.64914244	    -18.51265997	     16.10948140	      1.97935412	      0.00000000	     19.36770034	     -3.16307951	     -0.92554616	    -61.90816994	      3.75256685	     -4.48265776	      0.00000000	    -16.63685682	      2.27816450	     -3.99320433
      3.75000000	      2.39126869	     -3.35965439	      3.54664441	     -2.61634352	      0.95143070	      0.24007009	      5.96907053	      9.77535371	     -5.61707267	    -17.82559632	     16.07302893	      2.11672593	      0.00000000	     20.88072667	     -2.88871459	     -1.12253480	    -60.65616202	      4.94076869	     -5.10018142	      0.00000000	    -16.67660262	      2.16496251	     -3.90087541
      3.76000000	      2.26341298	     -3.29373313	      3.37574581	     -2.60454302	      0.95270338	      0.24001970	      5.00639749	      9.75751147	     -5.51913899	    -17.23960392	     16.05315337	      2.24664792	      0.00000000	     22.30163607	     -2.63564983	     -1.30859652	    -59.12717109	      5.93371375	     -5.76672616	      0.00000000	    -16.73898745	      2.09263760	     -3.83277586
      3.77000000	      2.15039362	     -3.22133512	      3.16180079	     -2.59281308	      0.95373044	      0.23996327	      4.07908667	      9.73683057	     -5.28291481	    -16.75395681	     16.07652507	      2.30912446	      0.00000000	     23.57522661	     -2.36826725	     -1.49239385	    -57.28108368	      6.59365700	     -6.56166046	      0.00000000	    -16.84289201	      2.01839340	     -3.73427388
      3.78000000	      2.05208333	     -3.17568647	      2.94455329	     -2.58113229	      0.95446458	      0.23986996	      3.18278323	      9.73840650	     -5.01253739	    -16.35115068	     16.12314088	      2.33333910	      0.00000000	     24.71875752	     -2.13193034	     -1.65159040	    -55.16037685	      7.10939143	     -7.14319536	      0.00000000	    -16.98404320	      1.98717010	     -3.69814198
